<svg width="380" height="58" viewBox="0 0 380 58" fill="none" xmlns="http://www.w3.org/2000/svg">
<rect x="9" width="64" height="14" rx="7" fill="#3F7FBC"/>
<rect y="22" width="82" height="14" rx="7" fill="#52BDCA"/>
<rect x="9" y="44" width="64" height="14" rx="7" fill="#5DB467"/>
<path d="M120.662 46C118.389 46 116.384 45.6487 114.648 44.946C112.912 44.202 111.569 43.0033 110.618 41.35C109.667 39.6967 109.192 37.444 109.192 34.592V22.502H103.86V14.752H109.192L110.184 5.948H118.492V14.752H126.49V22.502H118.492V34.716C118.492 35.956 118.761 36.8447 119.298 37.382C119.877 37.878 120.848 38.126 122.212 38.126H126.49V46H120.662ZM131.779 46V14.752H140.025L140.893 20.456C141.72 19.1333 142.691 17.9967 143.807 17.046C144.923 16.0953 146.205 15.3513 147.651 14.814C149.139 14.2767 150.731 14.008 152.425 14.008V23.866H149.325C148.085 23.866 146.949 24.0107 145.915 24.3C144.923 24.548 144.055 24.982 143.311 25.602C142.609 26.222 142.051 27.0693 141.637 28.144C141.265 29.1773 141.079 30.4793 141.079 32.05V46H131.779ZM166.619 46.744C164.015 46.744 161.845 46.3307 160.109 45.504C158.414 44.6773 157.153 43.5613 156.327 42.156C155.541 40.7093 155.149 39.118 155.149 37.382C155.149 35.522 155.603 33.8893 156.513 32.484C157.463 31.0373 158.931 29.9007 160.915 29.074C162.899 28.206 165.399 27.772 168.417 27.772H175.981C175.981 26.3667 175.795 25.2093 175.423 24.3C175.092 23.3907 174.534 22.7087 173.749 22.254C172.963 21.7993 171.889 21.572 170.525 21.572C169.078 21.572 167.859 21.8613 166.867 22.44C165.875 23.0187 165.255 23.928 165.007 25.168H156.079C156.285 22.936 157.009 20.9933 158.249 19.34C159.53 17.6867 161.225 16.3847 163.333 15.434C165.441 14.4833 167.859 14.008 170.587 14.008C173.563 14.008 176.146 14.504 178.337 15.496C180.527 16.4467 182.222 17.852 183.421 19.712C184.661 21.572 185.281 23.8867 185.281 26.656V46H177.531L176.415 41.474C175.96 42.2593 175.423 42.9827 174.803 43.644C174.183 44.264 173.459 44.822 172.633 45.318C171.806 45.7727 170.897 46.124 169.905 46.372C168.913 46.62 167.817 46.744 166.619 46.744ZM168.913 39.676C169.905 39.676 170.773 39.5107 171.517 39.18C172.261 38.8493 172.901 38.3947 173.439 37.816C173.976 37.2373 174.41 36.576 174.741 35.832C175.113 35.0467 175.381 34.1993 175.547 33.29V33.228H169.533C168.499 33.228 167.631 33.3727 166.929 33.662C166.267 33.91 165.771 34.282 165.441 34.778C165.11 35.274 164.945 35.8527 164.945 36.514C164.945 37.2167 165.11 37.816 165.441 38.312C165.813 38.7667 166.288 39.118 166.867 39.366C167.487 39.5727 168.169 39.676 168.913 39.676ZM206.587 46.744C203.363 46.744 200.511 46.0413 198.031 44.636C195.593 43.2307 193.671 41.3087 192.265 38.87C190.901 36.4313 190.219 33.6413 190.219 30.5C190.219 27.276 190.901 24.4447 192.265 22.006C193.671 19.526 195.593 17.5833 198.031 16.178C200.511 14.7313 203.363 14.008 206.587 14.008C210.679 14.008 214.11 15.0827 216.879 17.232C219.69 19.3813 221.467 22.378 222.211 26.222H212.353C211.981 24.8993 211.279 23.866 210.245 23.122C209.212 22.378 207.972 22.006 206.525 22.006C205.161 22.006 203.963 22.3573 202.929 23.06C201.937 23.7213 201.152 24.6927 200.573 25.974C199.995 27.214 199.705 28.6813 199.705 30.376C199.705 31.6573 199.871 32.8147 200.201 33.848C200.532 34.8813 200.987 35.77 201.565 36.514C202.185 37.258 202.909 37.8367 203.735 38.25C204.562 38.622 205.492 38.808 206.525 38.808C207.517 38.808 208.385 38.6427 209.129 38.312C209.915 37.9813 210.576 37.506 211.113 36.886C211.692 36.266 212.105 35.5013 212.353 34.592H222.211C221.467 38.312 219.69 41.2673 216.879 43.458C214.069 45.6487 210.638 46.744 206.587 46.744ZM248.387 46L235.491 28.888L246.961 14.752H257.935L242.497 32.856V25.416L259.919 46H248.387ZM227.555 46V1.36H236.855V46H227.555ZM275.522 46.744C272.298 46.744 269.467 46.0827 267.028 44.76C264.589 43.396 262.667 41.5153 261.262 39.118C259.898 36.6793 259.216 33.8893 259.216 30.748C259.216 27.524 259.898 24.6513 261.262 22.13C262.626 19.6087 264.527 17.6247 266.966 16.178C269.405 14.7313 272.236 14.008 275.46 14.008C278.601 14.008 281.35 14.69 283.706 16.054C286.062 17.418 287.901 19.278 289.224 21.634C290.588 23.9487 291.27 26.6353 291.27 29.694C291.27 30.1073 291.249 30.5827 291.208 31.12C291.208 31.616 291.167 32.1327 291.084 32.67H265.85V27.276H281.784C281.701 25.54 281.061 24.1553 279.862 23.122C278.705 22.0473 277.258 21.51 275.522 21.51C274.199 21.51 273.001 21.82 271.926 22.44C270.851 23.06 269.983 23.99 269.322 25.23C268.702 26.47 268.392 28.0407 268.392 29.942V31.802C268.392 33.2487 268.661 34.53 269.198 35.646C269.777 36.762 270.583 37.63 271.616 38.25C272.691 38.87 273.951 39.18 275.398 39.18C276.762 39.18 277.878 38.9113 278.746 38.374C279.655 37.7953 280.358 37.072 280.854 36.204H290.34C289.761 38.188 288.769 39.986 287.364 41.598C285.959 43.1687 284.243 44.4293 282.218 45.38C280.193 46.2893 277.961 46.744 275.522 46.744ZM310.137 46.744C307.368 46.744 304.846 46.0413 302.573 44.636C300.341 43.2307 298.564 41.3087 297.241 38.87C295.96 36.39 295.319 33.5793 295.319 30.438C295.319 27.2553 295.98 24.4447 297.303 22.006C298.626 19.526 300.424 17.5833 302.697 16.178C305.012 14.7313 307.574 14.008 310.385 14.008C312.534 14.008 314.415 14.4007 316.027 15.186C317.639 15.93 318.962 17.0253 319.995 18.472V1.36H329.295V46H321.049L319.995 41.97C319.375 42.838 318.61 43.644 317.701 44.388C316.833 45.0907 315.779 45.6487 314.539 46.062C313.299 46.5167 311.832 46.744 310.137 46.744ZM312.555 38.622C314.084 38.622 315.428 38.2707 316.585 37.568C317.784 36.8653 318.693 35.894 319.313 34.654C319.974 33.414 320.305 31.988 320.305 30.376C320.305 28.764 319.974 27.338 319.313 26.098C318.693 24.858 317.784 23.8867 316.585 23.184C315.428 22.4813 314.084 22.13 312.555 22.13C311.067 22.13 309.724 22.4813 308.525 23.184C307.368 23.8867 306.458 24.858 305.797 26.098C305.136 27.338 304.805 28.7433 304.805 30.314C304.805 31.926 305.136 33.3727 305.797 34.654C306.458 35.894 307.368 36.8653 308.525 37.568C309.724 38.2707 311.067 38.622 312.555 38.622ZM347.28 46.744C344.676 46.744 342.465 46.2067 340.646 45.132C338.869 44.0573 337.505 42.4867 336.554 40.42C335.645 38.312 335.19 35.7493 335.19 32.732V14.752H344.49V31.802C344.49 34.1167 344.966 35.894 345.916 37.134C346.867 38.3327 348.396 38.932 350.504 38.932C351.786 38.932 352.922 38.6427 353.914 38.064C354.948 37.4853 355.733 36.638 356.27 35.522C356.849 34.406 357.138 33.042 357.138 31.43V14.752H366.438V46H358.316L357.572 41.04C356.663 42.7347 355.34 44.1193 353.604 45.194C351.868 46.2273 349.76 46.744 347.28 46.744Z" fill="#003675"/>
</svg>
